<svg xmlns="http://www.w3.org/2000/svg" xmlns:xlink="http://www.w3.org/1999/xlink" width="500" zoomAndPan="magnify" viewBox="0 0 375 374.999991" height="500" preserveAspectRatio="xMidYMid meet" version="1.0"><path fill="#e63533" d="M 28.867188 173.007812 C 32.484375 163.640625 36.113281 154.28125 39.738281 144.917969 C 44.746094 131.984375 49.753906 119.050781 54.765625 106.117188 L 30.617188 106.117188 C 26.242188 115.679688 21.867188 125.25 17.488281 134.8125 C 11.695312 147.472656 5.898438 160.125 0.101562 172.789062 C 0.0703125 172.859375 0.03125 172.933594 0 173.007812 L 28.867188 173.007812 " fill-opacity="1" fill-rule="nonzero"/><path fill="#e63533" d="M 86.476562 173.007812 C 88.289062 165.605469 90.113281 158.207031 91.9375 150.804688 C 94.671875 139.71875 97.40625 128.625 100.140625 117.535156 C 101.078125 113.730469 102.011719 109.921875 102.949219 106.117188 L 78.804688 106.117188 C 72.714844 125.359375 66.617188 144.597656 60.519531 163.839844 C 59.550781 166.894531 58.582031 169.953125 57.621094 173.007812 L 86.476562 173.007812 " fill-opacity="1" fill-rule="nonzero"/><path fill="#e63533" d="M 144.21875 173.007812 C 144.367188 171.613281 144.507812 170.214844 144.65625 168.816406 C 144.972656 165.804688 145.296875 162.789062 145.613281 159.777344 C 145.890625 157.148438 146.164062 154.523438 146.441406 151.898438 C 146.761719 148.886719 147.085938 145.871094 147.402344 142.855469 C 147.679688 140.230469 147.953125 137.605469 148.230469 134.980469 C 148.546875 131.984375 148.863281 128.988281 149.183594 125.992188 C 149.460938 123.367188 149.738281 120.742188 150.011719 118.117188 C 150.292969 115.453125 150.578125 112.789062 150.859375 110.128906 C 151 108.796875 151.136719 107.460938 151.277344 106.117188 L 127.144531 106.117188 C 127.035156 106.726562 126.925781 107.332031 126.816406 107.945312 C 125.898438 113.160156 124.980469 118.371094 124.058594 123.589844 C 123.078125 129.171875 122.097656 134.753906 121.117188 140.335938 C 120.125 145.96875 119.125 151.605469 118.136719 157.242188 C 117.222656 162.417969 116.324219 167.601562 115.410156 172.777344 C 115.394531 172.855469 115.378906 172.929688 115.363281 173.007812 L 144.21875 173.007812 " fill-opacity="1" fill-rule="nonzero"/><path fill="#ffffff" d="M 173.101562 173.007812 C 173.160156 171.144531 173.21875 169.285156 173.28125 167.421875 C 173.425781 163.109375 173.578125 158.796875 173.730469 154.484375 C 173.839844 151.398438 173.953125 148.3125 174.0625 145.226562 C 174.214844 140.914062 174.363281 136.601562 174.511719 132.289062 C 174.621094 129.203125 174.734375 126.117188 174.84375 123.03125 C 174.996094 118.71875 175.140625 114.40625 175.292969 110.09375 C 175.34375 108.777344 175.394531 107.445312 175.449219 106.117188 L 151.320312 106.117188 C 151.269531 106.582031 151.21875 107.046875 151.167969 107.511719 C 150.847656 110.542969 150.519531 113.574219 150.199219 116.605469 C 149.925781 119.210938 149.65625 121.820312 149.382812 124.429688 C 149.097656 127.109375 148.804688 129.789062 148.523438 132.472656 C 148.25 135.078125 147.980469 137.6875 147.707031 140.292969 C 147.421875 142.972656 147.132812 145.65625 146.847656 148.335938 C 146.574219 150.960938 146.300781 153.585938 146.027344 156.214844 C 145.710938 159.226562 145.382812 162.238281 145.066406 165.253906 C 144.792969 167.839844 144.527344 170.425781 144.25 173.007812 L 173.101562 173.007812 " fill-opacity="1" fill-rule="nonzero"/><path fill="#e63533" d="M 346.136719 173.007812 L 375 173.007812 C 364.796875 150.714844 354.589844 128.417969 344.394531 106.117188 L 320.246094 106.117188 C 321.996094 110.644531 323.753906 115.175781 325.507812 119.707031 C 332.390625 137.472656 339.269531 155.238281 346.136719 173.007812 " fill-opacity="1" fill-rule="nonzero"/><path fill="#ffffff" d="M 317.398438 173.007812 L 346.117188 173.007812 C 344.3125 168.335938 342.507812 163.667969 340.695312 158.996094 C 337.390625 150.464844 334.082031 141.933594 330.78125 133.398438 C 327.257812 124.308594 323.738281 115.214844 320.226562 106.117188 L 296.210938 106.117188 C 299.53125 116.597656 302.851562 127.078125 306.175781 137.558594 C 309.917969 149.375 313.667969 161.191406 317.398438 173.007812 " fill-opacity="1" fill-rule="nonzero"/><path fill="#e63533" d="M 288.515625 173.007812 L 317.378906 173.007812 C 314.539062 164.039062 311.695312 155.066406 308.851562 146.09375 C 304.632812 132.769531 300.40625 119.445312 296.191406 106.117188 L 272.050781 106.117188 C 274.09375 114.410156 276.136719 122.699219 278.175781 130.988281 C 281.625 144.996094 285.074219 159.003906 288.515625 173.007812 " fill-opacity="1" fill-rule="nonzero"/><path fill="#e63533" d="M 225.011719 118.039062 C 225.398438 121.738281 225.777344 125.433594 226.164062 129.132812 C 226.558594 132.832031 226.960938 136.527344 227.355469 140.222656 C 227.707031 143.589844 228.046875 146.957031 228.402344 150.320312 C 228.792969 154.015625 229.203125 157.714844 229.589844 161.410156 C 229.984375 165.105469 230.359375 168.808594 230.746094 172.503906 C 230.765625 172.671875 230.785156 172.839844 230.800781 173.007812 L 259.667969 173.007812 C 258.425781 165.964844 257.1875 158.921875 255.945312 151.882812 C 254.65625 144.585938 253.363281 137.289062 252.074219 129.988281 C 250.863281 123.105469 249.664062 116.222656 248.453125 109.34375 C 248.269531 108.269531 248.066406 107.191406 247.878906 106.117188 L 223.734375 106.117188 C 223.753906 106.265625 223.78125 106.410156 223.792969 106.558594 C 224.210938 110.382812 224.613281 114.210938 225.011719 118.039062 " fill-opacity="1" fill-rule="nonzero"/><path fill="#e63533" d="M 201.96875 173.007812 C 201.183594 150.714844 200.398438 128.433594 199.613281 106.117188 L 175.46875 106.117188 C 175.402344 108.28125 175.335938 110.441406 175.265625 112.609375 C 175.117188 116.863281 174.96875 121.121094 174.816406 125.378906 C 174.707031 128.464844 174.589844 131.550781 174.484375 134.636719 C 174.332031 138.964844 174.1875 143.296875 174.03125 147.625 C 173.886719 151.828125 173.738281 156.03125 173.585938 160.230469 C 173.4375 164.488281 173.289062 168.742188 173.140625 173 C 173.140625 173.003906 173.140625 173.007812 173.140625 173.007812 L 201.96875 173.007812 " fill-opacity="1" fill-rule="nonzero"/><path fill="#efefed" d="M 288.523438 173.007812 L 272.0625 106.117188 L 247.90625 106.117188 L 259.664062 173.007812 L 288.523438 173.007812 " fill-opacity="1" fill-rule="nonzero"/><path fill="#ffffff" d="M 115.320312 173.007812 L 127.015625 106.117188 L 102.949219 106.117188 L 86.355469 173.007812 L 115.320312 173.007812 " fill-opacity="1" fill-rule="nonzero"/><path fill="#ffffff" d="M 230.796875 173.007812 L 223.730469 106.117188 L 199.554688 106.117188 L 201.992188 173.007812 L 230.796875 173.007812 " fill-opacity="1" fill-rule="nonzero"/><path fill="#ffffff" d="M 57.707031 173.007812 L 78.8125 106.117188 L 54.628906 106.117188 L 28.722656 173.007812 L 57.707031 173.007812 " fill-opacity="1" fill-rule="nonzero"/><path fill="#a91d23" d="M 173.140625 194.027344 C 173.140625 187.019531 173.140625 180.015625 173.140625 173.007812 C 182.738281 173.007812 192.34375 173.007812 201.941406 173.007812 C 201.953125 173.210938 201.96875 173.410156 201.96875 173.609375 C 201.96875 180.230469 201.96875 186.855469 201.964844 193.476562 C 201.964844 193.949219 201.972656 194.425781 201.90625 194.894531 C 201.417969 198.433594 199.671875 201.273438 196.71875 203.25 C 191.109375 207.007812 185.253906 207.082031 179.398438 203.867188 C 176.421875 202.230469 174.429688 199.6875 173.554688 196.378906 C 173.347656 195.609375 173.273438 194.8125 173.140625 194.027344 " fill-opacity="1" fill-rule="nonzero"/><path fill="#c2c3c1" d="M 201.96875 194.027344 C 201.96875 187.019531 201.96875 180.015625 201.96875 173.007812 C 211.570312 173.007812 221.171875 173.007812 230.773438 173.007812 C 230.78125 173.210938 230.796875 173.410156 230.796875 173.609375 C 230.796875 180.230469 230.796875 186.855469 230.792969 193.476562 C 230.792969 193.949219 230.800781 194.425781 230.734375 194.894531 C 230.246094 198.433594 228.5 201.273438 225.546875 203.25 C 219.9375 207.007812 214.085938 207.082031 208.230469 203.867188 C 205.25 202.230469 203.261719 199.6875 202.378906 196.378906 C 202.179688 195.609375 202.101562 194.8125 201.96875 194.027344 " fill-opacity="1" fill-rule="nonzero"/><path fill="#a91d23" d="M 230.8125 194.027344 C 230.8125 187.019531 230.8125 180.015625 230.8125 173.007812 C 240.417969 173.007812 250.015625 173.007812 259.621094 173.007812 C 259.628906 173.210938 259.644531 173.410156 259.644531 173.609375 C 259.644531 180.230469 259.648438 186.855469 259.644531 193.476562 C 259.644531 193.949219 259.648438 194.425781 259.585938 194.894531 C 259.089844 198.433594 257.34375 201.273438 254.390625 203.25 C 248.785156 207.007812 242.933594 207.082031 237.074219 203.867188 C 234.097656 202.230469 232.109375 199.6875 231.230469 196.378906 C 231.023438 195.609375 230.949219 194.8125 230.8125 194.027344 " fill-opacity="1" fill-rule="nonzero"/><path fill="#c2c3c1" d="M 259.527344 194.027344 C 259.527344 187.019531 259.527344 180.015625 259.527344 173.007812 C 269.183594 173.007812 278.839844 173.007812 288.496094 173.007812 C 288.503906 173.210938 288.519531 173.410156 288.519531 173.609375 C 288.523438 180.230469 288.523438 186.855469 288.519531 193.476562 C 288.519531 193.949219 288.523438 194.425781 288.457031 194.894531 C 287.960938 198.433594 286.207031 201.273438 283.238281 203.25 C 277.601562 207.007812 271.710938 207.082031 265.824219 203.867188 C 262.828125 202.230469 260.828125 199.6875 259.945312 196.378906 C 259.738281 195.609375 259.664062 194.8125 259.527344 194.027344 " fill-opacity="1" fill-rule="nonzero"/><path fill="#a91d23" d="M 288.523438 194.027344 C 288.523438 187.019531 288.523438 180.015625 288.523438 173.007812 C 298.132812 173.007812 307.742188 173.007812 317.355469 173.007812 C 317.363281 173.210938 317.378906 173.410156 317.378906 173.609375 C 317.378906 180.230469 317.378906 186.855469 317.378906 193.476562 C 317.378906 193.949219 317.382812 194.425781 317.320312 194.894531 C 316.824219 198.433594 315.074219 201.273438 312.121094 203.25 C 306.507812 207.007812 300.648438 207.082031 294.785156 203.867188 C 291.804688 202.230469 289.8125 199.6875 288.933594 196.378906 C 288.730469 195.609375 288.65625 194.8125 288.523438 194.027344 " fill-opacity="1" fill-rule="nonzero"/><path fill="#c2c3c1" d="M 317.378906 194.027344 C 317.378906 187.019531 317.378906 180.015625 317.378906 173.007812 C 326.992188 173.007812 336.601562 173.007812 346.214844 173.007812 C 346.222656 173.210938 346.238281 173.410156 346.238281 173.609375 C 346.238281 180.230469 346.238281 186.855469 346.234375 193.476562 C 346.234375 193.949219 346.242188 194.425781 346.175781 194.894531 C 345.683594 198.433594 343.9375 201.273438 340.980469 203.25 C 335.367188 207.007812 329.507812 207.082031 323.644531 203.867188 C 320.664062 202.230469 318.671875 199.6875 317.792969 196.378906 C 317.589844 195.609375 317.515625 194.8125 317.378906 194.027344 " fill-opacity="1" fill-rule="nonzero"/><path fill="#a91d23" d="M 346.117188 194.027344 C 346.117188 187.019531 346.117188 180.015625 346.117188 173.007812 C 355.730469 173.007812 365.34375 173.007812 374.953125 173.007812 C 374.960938 173.210938 374.976562 173.410156 374.976562 173.609375 C 374.980469 180.230469 374.980469 186.855469 374.976562 193.476562 C 374.976562 193.949219 374.984375 194.425781 374.917969 194.894531 C 374.425781 198.433594 372.679688 201.273438 369.71875 203.25 C 364.109375 207.007812 358.25 207.082031 352.386719 203.867188 C 349.40625 202.230469 347.414062 199.6875 346.535156 196.378906 C 346.328125 195.609375 346.253906 194.8125 346.117188 194.027344 " fill-opacity="1" fill-rule="nonzero"/><path fill="#a91d23" d="M 0 194.027344 C 0 187.019531 0 180.015625 0 173.007812 C 9.550781 173.007812 19.101562 173.007812 28.652344 173.007812 C 28.660156 173.210938 28.675781 173.410156 28.675781 173.609375 C 28.675781 180.230469 28.679688 186.855469 28.675781 193.476562 C 28.675781 193.949219 28.679688 194.425781 28.617188 194.894531 C 28.125 198.433594 26.390625 201.273438 23.453125 203.25 C 17.875 207.007812 12.050781 207.082031 6.226562 203.867188 C 3.261719 202.230469 1.285156 199.6875 0.410156 196.378906 C 0.210938 195.609375 0.132812 194.8125 0 194.027344 " fill-opacity="1" fill-rule="nonzero"/><path fill="#a91d23" d="M 57.621094 194.027344 C 57.621094 187.019531 57.621094 180.015625 57.621094 173.007812 C 67.203125 173.007812 76.789062 173.007812 86.375 173.007812 C 86.382812 173.210938 86.394531 173.410156 86.394531 173.609375 C 86.398438 180.230469 86.398438 186.855469 86.394531 193.476562 C 86.394531 193.949219 86.402344 194.425781 86.335938 194.894531 C 85.847656 198.433594 84.105469 201.273438 81.15625 203.25 C 75.558594 207.007812 69.714844 207.082031 63.867188 203.867188 C 60.890625 202.230469 58.90625 199.6875 58.03125 196.378906 C 57.828125 195.609375 57.753906 194.8125 57.621094 194.027344 " fill-opacity="1" fill-rule="nonzero"/><path fill="#c2c3c1" d="M 86.398438 194.027344 C 86.398438 187.019531 86.398438 180.015625 86.398438 173.007812 C 96.046875 173.007812 105.691406 173.007812 115.339844 173.007812 C 115.347656 173.210938 115.363281 173.410156 115.363281 173.609375 C 115.363281 180.230469 115.367188 186.855469 115.363281 193.476562 C 115.359375 193.949219 115.367188 194.425781 115.300781 194.894531 C 114.808594 198.433594 113.054688 201.273438 110.089844 203.25 C 104.453125 207.007812 98.574219 207.082031 92.6875 203.867188 C 89.695312 202.230469 87.699219 199.6875 86.816406 196.378906 C 86.609375 195.609375 86.535156 194.8125 86.398438 194.027344 " fill-opacity="1" fill-rule="nonzero"/><path fill="#c2c3c1" d="M 144.25 194.027344 C 144.25 187.019531 144.25 180.015625 144.25 173.007812 C 153.859375 173.007812 163.472656 173.007812 173.082031 173.007812 C 173.09375 173.210938 173.109375 173.410156 173.109375 173.609375 C 173.109375 180.230469 173.109375 186.855469 173.105469 193.476562 C 173.105469 193.949219 173.113281 194.425781 173.046875 194.894531 C 172.554688 198.433594 170.808594 201.273438 167.851562 203.25 C 162.238281 207.007812 156.378906 207.082031 150.515625 203.867188 C 147.535156 202.230469 145.542969 199.6875 144.664062 196.378906 C 144.460938 195.609375 144.386719 194.8125 144.25 194.027344 " fill-opacity="1" fill-rule="nonzero"/><path fill="#a91d23" d="M 115.390625 194.027344 C 115.390625 187.019531 115.390625 180.015625 115.390625 173.007812 C 125.003906 173.007812 134.613281 173.007812 144.226562 173.007812 C 144.234375 173.210938 144.246094 173.410156 144.246094 173.609375 C 144.25 180.230469 144.25 186.855469 144.246094 193.476562 C 144.246094 193.949219 144.253906 194.425781 144.1875 194.894531 C 143.695312 198.433594 141.949219 201.273438 138.992188 203.25 C 133.378906 207.007812 127.519531 207.082031 121.65625 203.867188 C 118.675781 202.230469 116.683594 199.6875 115.804688 196.378906 C 115.601562 195.609375 115.527344 194.8125 115.390625 194.027344 " fill-opacity="1" fill-rule="nonzero"/><path fill="#c2c3c1" d="M 28.695312 194.027344 C 28.695312 187.019531 28.695312 180.015625 28.695312 173.007812 C 38.328125 173.007812 47.960938 173.007812 57.59375 173.007812 C 57.601562 173.210938 57.617188 173.410156 57.617188 173.609375 C 57.621094 180.230469 57.621094 186.855469 57.617188 193.476562 C 57.617188 193.949219 57.621094 194.425781 57.558594 194.894531 C 57.0625 198.433594 55.3125 201.273438 52.347656 203.25 C 46.722656 207.007812 40.847656 207.082031 34.972656 203.867188 C 31.988281 202.230469 29.988281 199.6875 29.109375 196.378906 C 28.90625 195.609375 28.828125 194.8125 28.695312 194.027344 " fill-opacity="1" fill-rule="nonzero"/></svg>