<?xml version="1.0" encoding="UTF-8"?>
<svg xmlns="http://www.w3.org/2000/svg" viewBox="-17 -7 571 182" width="571" height="182" aria-label="Anbit">
  <title>Anbit wordmark — Omnes Bold Italic outlines</title>
  <path id="anbit-wordmark" d="M105 157.60Q97.20 157.60 92.80 153.20Q88.40 148.80 87 139.60L87 139.60L85 129.20L43.40 129.20L27.60 158Q27.60 158.20 25 158.20L25 158.20Q16.40 158.20 7.70 154.40Q-1 150.60-1 140.80L-1 140.80Q-1 135.80 0.70 131.80Q2.40 127.80 7 120.40L7 120.40L58.40 36.40Q61.80 30.80 67.30 28.10Q72.80 25.40 84 25.40L84 25.40Q96.20 25.40 101.40 28.40Q106.60 31.40 107.60 36.80L107.60 36.80L127.80 144.60Q128.20 146.40 124.80 149.60Q121.40 152.80 115.90 155.20Q110.40 157.60 105 157.60L105 157.60ZM55.80 100.40L84 100.40L77.60 63L55.80 100.40ZM253.20 144.80Q254 145 251.80 148.70Q249.60 152.40 244.50 155.40Q239.40 158.40 230.80 158.40L230.80 158.40Q218.60 158.40 212.90 153.30Q207.20 148.20 207.20 139L207.20 139Q207.20 134.60 208.20 129.50Q209.20 124.40 211.80 115.60L211.80 115.60Q215.60 101 215.60 97.40L215.60 97.40Q215.60 91.80 212.50 88.60Q209.40 85.40 203.80 85.40L203.80 85.40Q198.80 85.40 195.40 87.50Q192 89.60 188.60 94.20L188.60 94.20L179 138.60Q177 148.80 172.90 152.90Q168.80 157 161.40 157L161.40 157L157.40 157Q150 157 145.10 153.80Q140.20 150.60 140.20 143.60L140.20 143.60Q140.20 141.20 140.80 138.60L140.80 138.60L157.80 58.60Q158 57.80 161.30 56.90Q164.60 56 168.80 56L168.80 56Q174.80 56 179.80 58.70Q184.80 61.40 187.40 66.80L187.40 66.80Q189 70.40 189.60 74.80L189.60 74.80Q196.60 65 205.30 59.70Q214 54.40 225.40 54.40L225.40 54.40Q239.80 54.40 247.80 62.90Q255.80 71.40 255.80 85.60L255.80 85.60Q255.80 90.60 254.50 97.10Q253.20 103.60 250.20 114L250.20 114Q245.40 130.40 245.40 135.40L245.40 135.40Q245.40 139.60 247.30 141.70Q249.20 143.80 253.20 144.80L253.20 144.80ZM332.20 158.40Q321.60 158.40 312.70 153.50Q303.80 148.60 299.40 139.60L299.40 139.60Q296.80 145.20 292.80 149.20L292.80 149.20Q286.40 156.80 273.40 156.80L273.40 156.80Q268.40 156.80 264.20 155.10Q260 153.40 260.20 152.20L260.20 152.20L285.40 33.60Q287.60 23.40 291.60 19.30Q295.60 15.20 303 15.20L303 15.20L307 15.20Q314.40 15.20 319.30 18.40Q324.20 21.60 324.20 28.60L324.20 28.60Q324.20 30.80 323.60 33.60L323.60 33.60L316.40 68Q327.40 54.40 344.80 54.40L344.80 54.40Q355.60 54.40 364.20 59.40Q372.80 64.40 377.70 73.90Q382.60 83.40 382.60 96.20L382.60 96.20Q382.60 112.20 376.30 126.50Q370 140.80 358.50 149.60Q347 158.40 332.20 158.40L332.20 158.40ZM324.80 129.20Q334.60 129.20 340.20 121.30Q345.80 113.40 345.80 102.20L345.80 102.20Q345.80 94 341.40 89Q337 84 329.60 84L329.60 84Q324.20 84 319.20 86.70Q314.20 89.40 310.80 94.20L310.80 94.20L308.40 105Q307.60 109.80 307.60 111.80L307.60 111.80Q307.60 119.80 312.10 124.50Q316.60 129.20 324.80 129.20L324.80 129.20ZM431.40 46Q422.60 46 417.30 41.50Q412 37 412 29.20L412 29.20Q412 20.80 418 15.20Q424 9.60 433.80 9.60L433.80 9.60Q442.20 9.60 447.60 14Q453 18.40 453 26.20L453 26.20Q453 34.80 447.10 40.40Q441.20 46 431.40 46L431.40 46ZM415.60 158.40Q402.80 158.40 396.90 152.80Q391 147.20 391 137.20L391 137.20Q391 133.20 392 127.60L392 127.60L403.60 74.40Q405.60 64.20 409.60 60.10Q413.60 56 421 56L421 56L425 56Q432.60 56 437.40 59.10Q442.20 62.20 442.20 69.20L442.20 69.20Q442.20 71.40 441.60 74.40L441.60 74.40L430 129.20Q429 133.20 429 137.40L429 137.40Q429 141.60 430.80 144Q432.60 146.40 436.40 147.60L436.40 147.60Q437 147.80 435.10 150.70Q433.20 153.60 428.50 156Q423.80 158.40 415.60 158.40L415.60 158.40ZM492.40 158.80Q476.60 158.80 468.50 151.60Q460.40 144.40 460.40 131.20L460.40 131.20Q460.40 126 461.60 120L461.60 120L468.80 85.60L466.40 85.60Q460.20 85.60 456.70 82.80Q453.20 80 453.20 75.40L453.20 75.40Q453.20 72.20 454.50 67.70Q455.80 63.20 458.40 60.60L458.40 60.60Q460.40 58.60 463.20 57.80Q466 57 471.40 57L471.40 57L475 57L475.60 53.80Q478.20 40.60 484.50 34.70Q490.80 28.80 503.40 28.80L503.40 28.80Q507.40 28.80 510.60 29.60Q513.80 30.40 515.70 31.50Q517.60 32.60 517.40 33.40L517.40 33.40L512.40 57L523.80 57Q530.40 57 534 59.70Q537.60 62.40 537.60 67.20L537.60 67.20Q537.60 70.40 536.30 74.90Q535 79.40 532.40 82L532.40 82Q530.40 84 527.60 84.80Q524.80 85.60 519.40 85.60L519.40 85.60L505.60 85.60L498.60 118.20Q498.20 119.80 498.20 122.40L498.20 122.40Q498.20 130.60 506 130.60L506 130.60Q509 130.60 512 129.30Q515 128 517.20 126L517.20 126Q517.80 125.60 519.20 126.80Q520.60 128 521.70 130.50Q522.80 133 522.80 136.40L522.80 136.40Q522.80 144.20 516.80 150.60L516.80 150.60Q508.60 158.80 492.40 158.80L492.40 158.80Z" fill="currentColor" />
</svg>
