<svg xmlns="http://www.w3.org/2000/svg" xmlns:xlink="http://www.w3.org/1999/xlink" width="500" zoomAndPan="magnify" viewBox="0 0 375 374.999991" height="500" preserveAspectRatio="xMidYMid meet" version="1.0"><defs><clipPath id="e16bfdcca0"><path d="M 26 4.851562 L 362 4.851562 L 362 365.601562 L 26 365.601562 Z M 26 4.851562 " clip-rule="nonzero"/></clipPath><clipPath id="b837479886"><path d="M 194 258 L 355 258 L 355 365.601562 L 194 365.601562 Z M 194 258 " clip-rule="nonzero"/></clipPath><clipPath id="15704d97a4"><path d="M 194 4.851562 L 355 4.851562 L 355 113 L 194 113 Z M 194 4.851562 " clip-rule="nonzero"/></clipPath><clipPath id="00e079331a"><path d="M 34 258 L 195 258 L 195 365.601562 L 34 365.601562 Z M 34 258 " clip-rule="nonzero"/></clipPath></defs><g clip-path="url(#e16bfdcca0)"><path fill="#f17985" d="M 194.292969 4.851562 C 201.570312 4.851562 208.835938 6.398438 215.613281 9.476562 L 331.570312 62.171875 C 341.207031 66.554688 349.039062 73.679688 354.308594 82.363281 C 359.101562 90.257812 361.78125 99.472656 361.78125 109.097656 L 361.78125 261.359375 C 361.78125 270.984375 359.101562 280.195312 354.308594 288.09375 C 349.039062 296.777344 341.207031 303.902344 331.570312 308.28125 L 215.613281 360.976562 C 208.835938 364.054688 201.570312 365.601562 194.292969 365.601562 C 187.011719 365.601562 179.746094 364.054688 172.96875 360.976562 L 57.011719 308.28125 C 47.375 303.902344 39.542969 296.777344 34.273438 288.09375 C 29.480469 280.195312 26.800781 270.984375 26.800781 261.359375 L 26.800781 109.097656 C 26.800781 99.472656 29.480469 90.257812 34.273438 82.363281 C 39.542969 73.679688 47.375 66.554688 57.011719 62.171875 L 172.96875 9.476562 C 179.746094 6.398438 187.011719 4.851562 194.292969 4.851562 Z M 194.292969 4.851562 " fill-opacity="1" fill-rule="evenodd"/></g><path fill="#bd1425" d="M 80.757812 112.238281 C 83.308594 106.789062 87.742188 102.28125 93.4375 99.691406 L 183.625 58.695312 C 187.011719 57.160156 190.660156 56.386719 194.292969 56.386719 C 197.925781 56.386719 201.570312 57.160156 204.960938 58.695312 L 295.148438 99.691406 C 300.84375 102.28125 305.273438 106.789062 307.824219 112.238281 C 309.398438 115.589844 310.246094 119.300781 310.246094 123.152344 L 310.246094 247.300781 C 310.246094 251.152344 309.398438 254.863281 307.824219 258.214844 C 305.273438 263.664062 300.84375 268.175781 295.148438 270.761719 L 204.960938 311.761719 C 201.570312 313.292969 197.925781 314.066406 194.292969 314.066406 C 190.660156 314.066406 187.011719 313.292969 183.625 311.761719 L 93.4375 270.761719 C 87.742188 268.175781 83.308594 263.664062 80.757812 258.214844 C 79.1875 254.863281 78.335938 251.152344 78.335938 247.300781 L 78.335938 123.152344 C 78.335938 119.300781 79.1875 115.589844 80.757812 112.238281 Z M 80.757812 112.238281 " fill-opacity="1" fill-rule="evenodd"/><g clip-path="url(#b837479886)"><path fill="#ea3545" d="M 354.308594 288.09375 C 349.039062 296.777344 341.207031 303.902344 331.570312 308.28125 L 215.613281 360.976562 C 208.835938 364.054688 201.570312 365.601562 194.292969 365.601562 L 194.292969 314.066406 C 197.925781 314.066406 201.570312 313.292969 204.960938 311.761719 L 295.148438 270.761719 C 300.84375 268.175781 305.273438 263.664062 307.824219 258.214844 Z M 354.308594 288.09375 " fill-opacity="1" fill-rule="evenodd"/></g><path fill="#f17985" d="M 354.308594 82.363281 C 359.101562 90.257812 361.78125 99.472656 361.78125 109.097656 L 361.78125 261.359375 C 361.78125 270.984375 359.101562 280.195312 354.308594 288.09375 L 307.824219 258.214844 C 309.398438 254.863281 310.246094 251.152344 310.246094 247.300781 L 310.246094 123.152344 C 310.246094 119.300781 309.398438 115.589844 307.824219 112.238281 Z M 354.308594 82.363281 " fill-opacity="1" fill-rule="evenodd"/><g clip-path="url(#15704d97a4)"><path fill="#ea3545" d="M 194.292969 4.851562 C 201.570312 4.851562 208.835938 6.398438 215.613281 9.476562 L 331.570312 62.171875 C 341.207031 66.554688 349.039062 73.679688 354.308594 82.363281 L 307.824219 112.238281 C 305.273438 106.789062 300.84375 102.28125 295.148438 99.691406 L 204.960938 58.695312 C 201.570312 57.160156 197.925781 56.386719 194.292969 56.386719 Z M 194.292969 4.851562 " fill-opacity="1" fill-rule="evenodd"/></g><path fill="#ea3545" d="M 34.273438 288.09375 C 29.480469 280.195312 26.800781 270.984375 26.800781 261.359375 L 26.800781 109.097656 C 26.800781 99.472656 29.480469 90.257812 34.273438 82.363281 L 80.757812 112.238281 C 79.1875 115.589844 78.335938 119.300781 78.335938 123.152344 L 78.335938 247.300781 C 78.335938 251.152344 79.1875 254.863281 80.757812 258.214844 Z M 34.273438 288.09375 " fill-opacity="1" fill-rule="evenodd"/><g clip-path="url(#00e079331a)"><path fill="#f17985" d="M 194.292969 365.601562 C 187.011719 365.601562 179.746094 364.054688 172.96875 360.976562 L 57.011719 308.28125 C 47.375 303.902344 39.542969 296.777344 34.273438 288.09375 L 80.757812 258.214844 C 83.308594 263.664062 87.742188 268.175781 93.4375 270.761719 L 183.625 311.761719 C 187.011719 313.292969 190.660156 314.066406 194.292969 314.066406 Z M 194.292969 365.601562 " fill-opacity="1" fill-rule="evenodd"/></g><path fill="#fbd85b" d="M 181.527344 116.9375 C 183.425781 111.535156 188.546875 107.929688 194.296875 107.929688 C 200.050781 107.929688 205.167969 111.535156 207.070312 116.9375 C 210.652344 127.03125 214.238281 137.144531 216.691406 144.09375 C 218.605469 149.480469 223.726562 153.101562 229.476562 153.101562 C 236.714844 153.101562 247.234375 153.101562 258.054688 153.101562 C 264.023438 153.101562 269.277344 156.980469 271.011719 162.675781 C 272.746094 168.367188 270.542969 174.519531 265.574219 177.816406 C 257.671875 183.097656 250.019531 188.191406 244.449219 191.902344 C 239.296875 195.324219 237.148438 201.800781 239.199219 207.613281 C 241.464844 213.996094 244.566406 222.742188 247.71875 231.65625 C 249.667969 237.132812 247.867188 243.242188 243.265625 246.816406 C 238.648438 250.375 232.261719 250.605469 227.410156 247.367188 C 217.789062 240.953125 208.1875 234.574219 201.835938 230.320312 C 197.265625 227.285156 191.328125 227.285156 186.761719 230.320312 C 180.410156 234.574219 170.804688 240.953125 161.183594 247.367188 C 156.332031 250.605469 149.945312 250.375 145.328125 246.816406 C 140.726562 243.242188 138.925781 237.132812 140.875 231.65625 C 144.027344 222.742188 147.128906 213.996094 149.398438 207.613281 C 151.449219 201.800781 149.296875 195.324219 144.144531 191.902344 C 138.574219 188.191406 130.921875 183.097656 123.019531 177.816406 C 118.050781 174.519531 115.851562 168.367188 117.585938 162.675781 C 119.316406 156.980469 124.570312 153.101562 130.539062 153.101562 C 141.359375 153.101562 151.882812 153.101562 159.117188 153.101562 C 164.871094 153.101562 169.988281 149.480469 171.90625 144.09375 C 174.355469 137.144531 177.941406 127.03125 181.527344 116.9375 Z M 181.527344 116.9375 " fill-opacity="1" fill-rule="evenodd"/></svg>